<svg id="Bag" xmlns="http://www.w3.org/2000/svg" width="24" height="24" viewBox="0 0 24 24">
  <g id="Bag-2" data-name="Bag">
    <path id="Path_33955" d="M13.213,14.682H4.865C1.8,14.682-.554,13.574.114,9.117L.892,3.076C1.3.851,2.723,0,3.968,0H14.146c1.263,0,2.6.915,3.076,3.076L18,9.117C18.567,13.071,16.279,14.682,13.213,14.682Z" transform="translate(3.301 6.818)" fill="none" stroke="#cacaca" stroke-linecap="round" stroke-linejoin="round" stroke-width="1.5"/>
    <path id="Path_33956" d="M8.659,4.32A4.32,4.32,0,0,0,4.339,0h0A4.32,4.32,0,0,0,0,4.32H0" transform="translate(7.992 2.278)" fill="none" stroke="#cacaca" stroke-linecap="round" stroke-linejoin="round" stroke-width="1.5" opacity="0.4"/>
    <path id="Line_192" d="M.481.458H.435" transform="translate(14.816 10.644)" fill="none" stroke="#cacaca" stroke-linecap="round" stroke-linejoin="round" stroke-width="1.5"/>
    <path id="Line_193" d="M.481.458H.435" transform="translate(8.985 10.644)" fill="none" stroke="#cacaca" stroke-linecap="round" stroke-linejoin="round" stroke-width="1.5"/>
  </g>
</svg>
